<svg xmlns="http://www.w3.org/2000/svg"  viewBox="0 0 64 64" width="64px" height="64px"><path fill="#ffa602" d="M28.667,7.723l-16,7.138C9.823,16.164,8,19.006,8,22.134v18.828c0,3.079,1.767,5.885,4.545,7.215	l16,7.042c2.185,1.046,4.726,1.046,6.911,0l16-7.042C54.233,46.846,56,44.04,56,40.961V22.134c0-3.128-1.823-5.969-4.667-7.273	l-16-7.138C33.217,6.753,30.783,6.753,28.667,7.723z"/><path fill="#ffc75e" d="M54.308,17.208c-0.772-0.985-1.791-1.804-2.975-2.347l-16-7.138c-2.116-0.97-4.55-0.97-6.667,0	l-16,7.138c-1.455,0.667-2.636,1.739-3.45,3.043l20.72,8.449c1.26,0.514,2.676,0.492,3.919-0.061L54.308,17.208z"/><path d="M34.544,26.002c0,0-2.88,0.857-2.877,4.46c0,4.097,0,19.897,0,22.828c0,1.878,0.658,2.5,1.346,2.643	c0.838-0.107,1.663-0.341,2.442-0.714l16-7.042C54.233,46.846,56,44.04,56,40.961V22.134c0-1.727-0.53-3.427-1.692-4.926	C53.78,17.512,34.544,26.002,34.544,26.002z" opacity=".15"/><path fill="#fff" d="M33.612,7.164c-1.652-0.34-3.385-0.156-4.946,0.559l-16,7.138	C9.823,16.164,8,19.005,8,22.134v18.828c0,1.738,0.578,3.377,1.568,4.724C11.556,45.025,13,43.171,13,40.961V22.134	c0-1.169,0.687-2.24,1.704-2.707l16-7.138C32.744,11.38,33.85,9.271,33.612,7.164z" opacity=".3"/><path d="M56,22.134c0-1.739-0.616-3.56-1.692-4.926C52.433,18.04,51,19.924,51,22.134v18.827	c0,1.127-0.646,2.172-1.65,2.679l-10.482,4.606c-6.148,2.676-6.182,5.44-5.854,7.687c1.484-0.208,2.413-0.653,3.965-1.396	l14.477-6.36C54.233,46.846,56,44.04,56,40.961V22.134z" opacity=".15"/><ellipse cx="32" cy="61" opacity=".3" rx="19" ry="3"/><path fill="#ffeba8" d="M41.569,10.505L18.675,20.809c-0.703,0.332-1.149,1.042-1.145,1.82l0.128,27.802l6.264,2.757	l-0.136-27.986c-0.006-0.774,0.435-1.483,1.133-1.819l22.464-10.284L41.569,10.505z"/><line x1="17.112" x2="23.112" y1="16.708" y2="14.011" fill="none" stroke="#fff" stroke-linecap="round" stroke-linejoin="round" stroke-miterlimit="10" stroke-width="3"/></svg>